<svg width="256" height="256" viewBox="0 0 256 256" fill="none" xmlns="http://www.w3.org/2000/svg">
<path fill-rule="evenodd" clip-rule="evenodd" d="M128 256C198.692 256 256 198.692 256 128C256 57.3076 198.692 0 128 0C57.3075 0 0 57.3076 0 128C0 198.692 57.3075 256 128 256ZM128 243C191.513 243 243 191.513 243 128C243 64.4873 191.513 13 128 13C64.4873 13 13 64.4873 13 128C13 191.513 64.4873 243 128 243Z" fill="#ED3034"/>
<path d="M225.563 128.547H192.619C192.619 128.527 192.631 128.508 192.629 128.487C192.37 121.934 190.998 115.468 188.567 109.349C188.567 109.337 188.551 109.327 188.545 109.314L219.948 96.6794C220.261 96.5735 220.549 96.4068 220.793 96.1895C221.037 95.9721 221.234 95.7087 221.369 95.4152C221.505 95.1217 221.578 94.8044 221.584 94.4827C221.589 94.1609 221.527 93.8415 221.4 93.544C221.274 93.2464 221.087 92.9769 220.85 92.7521C220.613 92.5272 220.331 92.3516 220.022 92.236C219.713 92.1205 219.383 92.0674 219.051 92.08C218.72 92.0926 218.395 92.1706 218.096 92.3094L186.613 104.979C186.602 104.951 186.605 104.919 186.59 104.892C183.735 99.1346 179.951 93.8568 175.38 89.2583C175.38 89.2583 175.363 89.2488 175.356 89.2425L215.978 49.7769C216.206 49.5581 216.386 49.2977 216.51 49.0107C216.633 48.7236 216.697 48.4157 216.697 48.1046C216.697 47.7936 216.633 47.4856 216.51 47.1986C216.386 46.9115 216.206 46.6511 215.978 46.4323C215.519 45.9926 214.9 45.7461 214.256 45.7461C213.611 45.7461 212.992 45.9926 212.534 46.4323L171.836 85.9674C171.811 85.9437 171.801 85.9106 171.775 85.8885C166.985 81.777 161.564 78.4152 155.708 75.9243C155.697 75.9243 155.685 75.9243 155.674 75.9243L169.758 42.8985C169.901 42.6081 169.981 42.2926 169.994 41.971C170.007 41.6495 169.952 41.3288 169.833 41.0285C169.714 40.7281 169.533 40.4546 169.302 40.2244C169.07 39.9943 168.793 39.8124 168.486 39.6899C168.18 39.5675 167.851 39.507 167.52 39.5122C167.188 39.5173 166.862 39.5881 166.559 39.7201C166.257 39.852 165.986 40.0425 165.762 40.2798C165.538 40.517 165.366 40.7961 165.257 41.1L151.138 74.2062C151.107 74.1936 151.086 74.1684 151.055 74.1589C145.355 72.2423 139.395 71.1505 133.368 70.9185C133.345 70.9185 133.324 70.9295 133.301 70.9295V31.6501C133.301 31.0225 133.045 30.4206 132.588 29.9768C132.131 29.533 131.511 29.2837 130.864 29.2837C130.218 29.2837 129.598 29.533 129.141 29.9768C128.684 30.4206 128.428 31.0225 128.428 31.6501V70.9327C128.406 70.9327 128.384 70.9217 128.363 70.9217C122.311 71.1526 116.328 72.2503 110.607 74.1794C110.578 74.1889 110.555 74.2141 110.526 74.2252L91.4026 29.4099C91.1452 28.8443 90.6701 28.399 90.0789 28.1693C89.4877 27.9396 88.8274 27.9438 88.2393 28.1809C87.6512 28.418 87.182 28.8692 86.9322 29.4379C86.6823 30.0067 86.6716 30.6478 86.9024 31.2241L105.988 75.9306L105.956 75.94C100.496 78.2765 95.4103 81.3646 90.8568 85.1091C90.821 85.1391 90.8048 85.1817 90.7723 85.2148L61.1199 56.4344C60.8946 56.2133 60.6264 56.0377 60.3308 55.9179C60.0352 55.7981 59.7181 55.7364 59.3978 55.7364C59.0775 55.7364 58.7603 55.7981 58.4647 55.9179C58.1691 56.0377 57.9009 56.2133 57.6757 56.4344C57.2229 56.8799 56.969 57.4807 56.969 58.1067C56.969 58.7327 57.2229 59.3334 57.6757 59.779L87.1673 88.4174C82.9642 92.4947 79.386 97.1372 76.5423 102.203C76.5226 102.254 76.5058 102.307 76.4919 102.36L37.7579 86.7877C37.461 86.6603 37.1408 86.5918 36.8162 86.5862C36.4916 86.5806 36.1691 86.638 35.8677 86.7551C35.5663 86.8722 35.292 87.0466 35.0609 87.2681C34.8299 87.4896 34.6467 87.7537 34.5222 88.0448C34.3978 88.336 34.3344 88.6484 34.336 88.9637C34.3376 89.2789 34.404 89.5907 34.5314 89.8807C34.6588 90.1707 34.8445 90.433 35.0778 90.6523C35.311 90.8716 35.5871 91.0434 35.8896 91.1577L74.3052 106.618C71.151 113.519 69.3784 120.94 69.0821 128.484C69.0821 128.506 69.0918 128.525 69.0918 128.546H30.4797C29.8334 128.546 29.2135 128.795 28.7565 129.239C28.2995 129.683 28.0428 130.284 28.0428 130.912C28.0428 131.54 28.2995 132.142 28.7565 132.585C29.2135 133.029 29.8334 133.278 30.4797 133.278H69.0918C69.0918 133.301 69.0805 133.319 69.0805 133.342C69.3211 139.286 70.4737 145.162 72.5003 150.776C72.51 150.804 72.536 150.825 72.5474 150.851L29.5536 168.145C29.2511 168.26 28.975 168.431 28.7418 168.651C28.5086 168.87 28.3228 169.132 28.1954 169.422C28.068 169.712 28.0016 170.024 28 170.339C27.9985 170.655 28.0618 170.967 28.1863 171.258C28.3107 171.549 28.4939 171.813 28.7249 172.035C28.956 172.256 29.2303 172.431 29.5317 172.548C29.8331 172.665 30.1556 172.722 30.4802 172.717C30.8048 172.711 31.125 172.643 31.422 172.515L74.3296 155.258C74.3296 155.272 74.3296 155.288 74.3393 155.3C76.9065 160.884 80.3317 166.056 84.498 170.641C84.5208 170.666 84.5549 170.677 84.5809 170.701L58.9916 195.548C58.6512 195.879 58.4195 196.301 58.3256 196.76C58.2318 197.218 58.28 197.694 58.4643 198.126C58.6486 198.558 58.9606 198.928 59.361 199.188C59.7613 199.448 60.232 199.587 60.7137 199.587C61.3589 199.582 61.9767 199.333 62.4358 198.893L87.9422 174.117C87.9422 174.117 87.952 174.134 87.9584 174.14C92.6302 178.512 97.9775 182.147 103.807 184.914C103.837 184.928 103.873 184.925 103.906 184.937L90.6066 216.105C90.359 216.684 90.3585 217.336 90.6053 217.915C90.8521 218.495 91.3258 218.956 91.9225 219.197C92.2201 219.321 92.5407 219.386 92.8648 219.386C93.3459 219.384 93.8155 219.243 94.2145 218.982C94.6135 218.721 94.9239 218.351 95.1067 217.919L108.362 186.84C108.373 186.84 108.381 186.854 108.393 186.859C113.677 188.851 119.217 190.132 124.858 190.666C124.913 190.663 124.967 190.657 125.021 190.648V225.634C125.021 226.261 125.277 226.863 125.734 227.307C126.191 227.751 126.811 228 127.458 228C128.104 228 128.724 227.751 129.181 227.307C129.638 226.863 129.895 226.261 129.895 225.634V190.926C130.219 190.94 130.544 190.942 130.869 190.942C137.351 190.951 143.792 189.96 149.954 188.007C149.994 187.995 150.022 187.963 150.061 187.948L163.47 219.355C163.654 219.789 163.967 220.161 164.369 220.422C164.772 220.684 165.245 220.823 165.729 220.822C166.045 220.818 166.359 220.759 166.655 220.648C167.251 220.408 167.725 219.947 167.972 219.367C168.219 218.787 168.218 218.136 167.971 217.556L154.649 186.342C161.029 183.753 166.917 180.144 172.068 175.664C172.091 175.644 172.1 175.615 172.121 175.593L188.026 191.038C188.251 191.26 188.519 191.436 188.815 191.555C189.111 191.675 189.428 191.735 189.749 191.732C190.069 191.736 190.387 191.677 190.683 191.558C190.979 191.438 191.247 191.261 191.471 191.038C191.698 190.819 191.879 190.559 192.002 190.272C192.126 189.985 192.189 189.677 192.189 189.366C192.189 189.055 192.126 188.747 192.002 188.46C191.879 188.173 191.698 187.912 191.471 187.694L175.623 172.299C175.632 172.29 175.647 172.287 175.657 172.276C180.436 167.401 184.34 161.783 187.206 155.655C187.206 155.641 187.206 155.625 187.216 155.611L219.146 168.445C219.443 168.57 219.764 168.634 220.088 168.634C220.654 168.637 221.204 168.447 221.642 168.099C222.08 167.751 222.38 167.265 222.489 166.726C222.599 166.186 222.511 165.627 222.242 165.143C221.973 164.659 221.539 164.282 221.014 164.075L189.04 151.208C189.048 151.188 189.068 151.172 189.076 151.151C191.19 145.426 192.389 139.419 192.631 133.342C192.631 133.321 192.621 133.301 192.621 133.28H225.563C226.209 133.28 226.829 133.031 227.286 132.587C227.743 132.143 228 131.541 228 130.914C228 130.286 227.743 129.684 227.286 129.24C226.829 128.797 226.209 128.547 225.563 128.547ZM109.168 77.2226C108.985 77.2939 108.781 77.2991 108.595 77.2371C108.408 77.1752 108.251 77.0502 108.151 76.885C108.138 76.8488 108.11 76.8188 108.096 76.7841C108.598 76.5842 109.104 76.3918 109.615 76.2067C109.685 76.3995 109.679 76.6112 109.596 76.7995C109.513 76.9878 109.36 77.1389 109.168 77.2226ZM89.5181 88.4616C90.3076 87.7359 91.0907 86.9975 91.9144 86.3144L104.505 98.541C104.958 98.9865 105.212 99.5873 105.212 100.213C105.212 100.839 104.958 101.44 104.505 101.885C104.281 102.108 104.013 102.284 103.717 102.403C103.421 102.522 103.103 102.582 102.783 102.58C102.462 102.584 102.144 102.524 101.848 102.405C101.552 102.286 101.284 102.109 101.061 101.885L88.324 89.5328C88.7074 89.1605 89.1249 88.8244 89.5181 88.4616ZM77.2311 104.339C77.4732 103.876 77.7185 103.413 77.9671 102.958L105.992 114.238C106.506 114.451 106.93 114.829 107.191 115.309C107.453 115.789 107.536 116.342 107.428 116.875C107.319 117.408 107.025 117.888 106.595 118.235C106.165 118.582 105.625 118.775 105.066 118.782C104.743 118.778 104.425 118.719 104.123 118.608L75.8064 107.218C76.2547 106.241 76.734 105.285 77.2311 104.339ZM75.8226 154.657C75.3872 153.694 74.9843 152.713 74.5976 151.724C74.4076 151.236 74.2126 150.751 74.0355 150.255L94.5381 142.004C94.8351 141.877 95.1553 141.808 95.4799 141.803C95.8045 141.797 96.127 141.855 96.4284 141.972C96.7298 142.089 97.0041 142.263 97.2351 142.485C97.4662 142.706 97.6493 142.97 97.7738 143.261C97.8983 143.553 97.9616 143.865 97.9601 144.18C97.9585 144.495 97.8921 144.807 97.7647 145.097C97.6373 145.387 97.4515 145.65 97.2183 145.869C96.985 146.088 96.709 146.26 96.4064 146.374L75.8226 154.657ZM97.4299 164.895L89.0794 173.004C87.9097 171.9 86.7887 170.78 85.7165 169.597L93.9858 161.551C94.4445 161.111 95.0632 160.865 95.7078 160.865C96.3525 160.865 96.9711 161.111 97.4299 161.551C97.6577 161.77 97.8384 162.03 97.9618 162.317C98.0852 162.604 98.1487 162.912 98.1487 163.223C98.1487 163.534 98.0852 163.842 97.9618 164.129C97.8384 164.416 97.6577 164.677 97.4299 164.895ZM70.7051 133.28C70.6726 132.491 70.6563 131.702 70.6563 130.914C70.6563 130.649 70.6693 130.384 70.6726 130.125C70.6726 129.601 70.6839 129.077 70.7051 128.547H111.694C112.34 128.547 112.96 128.797 113.417 129.24C113.874 129.684 114.131 130.286 114.131 130.914C114.131 131.541 113.874 132.143 113.417 132.587C112.96 133.031 112.34 133.28 111.694 133.28H70.7051ZM124.837 148.22L108.981 185.389C108.477 185.195 107.992 184.963 107.493 184.758C106.991 184.547 106.493 184.337 105.998 184.127C105.511 183.912 104.999 183.723 104.515 183.495L120.339 146.406C120.456 146.112 120.633 145.844 120.859 145.617C121.085 145.391 121.355 145.211 121.654 145.087C121.952 144.963 122.273 144.899 122.598 144.897C122.923 144.896 123.244 144.957 123.544 145.078C123.844 145.199 124.116 145.377 124.344 145.601C124.572 145.825 124.752 146.092 124.872 146.384C124.993 146.677 125.052 146.99 125.046 147.306C125.041 147.621 124.968 147.932 124.837 148.22ZM129.89 189.348C128.79 189.337 127.701 189.282 126.616 189.211C126.082 189.176 125.547 189.143 125.016 189.096V180.956C125.016 180.328 125.273 179.726 125.73 179.282C126.187 178.838 126.806 178.589 127.453 178.589C128.099 178.589 128.719 178.838 129.176 179.282C129.633 179.726 129.89 180.328 129.89 180.956V189.348ZM133.301 111.335C133.301 111.963 133.045 112.565 132.588 113.009C132.131 113.453 131.511 113.702 130.864 113.702C130.218 113.702 129.598 113.453 129.141 113.009C128.684 112.565 128.428 111.963 128.428 111.335V72.4945C129.24 72.463 130.052 72.4472 130.864 72.4472C131.677 72.4472 132.489 72.463 133.301 72.4945V111.335ZM170.7 87.0717C171.104 87.4219 171.472 87.8021 171.865 88.1618C172.658 88.8828 173.46 89.5943 174.209 90.3531L157.004 107.06C156.545 107.5 155.928 107.749 155.282 107.754C154.801 107.754 154.33 107.615 153.93 107.355C153.529 107.095 153.217 106.725 153.033 106.293C152.849 105.861 152.8 105.385 152.894 104.927C152.988 104.468 153.22 104.046 153.56 103.716L170.7 87.0717ZM147.208 83.4274L150.522 75.6498C152.066 76.1546 153.577 76.7225 155.055 77.3694L151.708 85.2259C151.524 85.6605 151.211 86.0322 150.809 86.2934C150.407 86.5547 149.934 86.6939 149.45 86.6931C149.133 86.6889 148.82 86.6302 148.524 86.5195C147.927 86.2788 147.454 85.8179 147.207 85.238C146.96 84.6582 146.96 84.0069 147.208 83.4274ZM147.5 120.706L185.126 105.577C185.825 106.997 186.475 108.448 187.06 109.916L149.369 125.076C149.072 125.204 148.752 125.272 148.427 125.278C148.102 125.284 147.78 125.226 147.479 125.109C147.177 124.992 146.903 124.818 146.672 124.596C146.441 124.375 146.258 124.11 146.133 123.819C146.009 123.528 145.945 123.216 145.947 122.9C145.948 122.585 146.015 122.273 146.142 121.983C146.27 121.693 146.455 121.431 146.689 121.212C146.922 120.993 147.198 120.821 147.5 120.706ZM150.971 186.005C150.465 186.177 149.962 186.353 149.45 186.509L145.86 178.1C145.615 177.52 145.616 176.87 145.862 176.291C146.109 175.712 146.581 175.251 147.176 175.008C147.471 174.887 147.788 174.823 148.108 174.822C148.429 174.821 148.747 174.881 149.043 175C149.339 175.119 149.608 175.294 149.834 175.515C150.06 175.735 150.239 175.997 150.36 176.286L154.031 184.884C153.027 185.286 152.004 185.655 150.971 186.005ZM173.319 172.29C172.552 173.031 171.792 173.782 170.991 174.487L146.168 150.381C145.738 149.933 145.503 149.339 145.515 148.726C145.526 148.113 145.782 147.528 146.228 147.095C146.674 146.661 147.277 146.413 147.908 146.402C148.54 146.391 149.151 146.619 149.612 147.037L174.485 171.19C174.112 171.569 173.704 171.919 173.32 172.294L173.319 172.29ZM184.428 151.927C184.665 151.354 185.126 150.895 185.71 150.65C186.294 150.404 186.954 150.393 187.547 150.618C187.364 151.112 187.165 151.599 186.97 152.088C186.579 153.07 186.173 154.046 185.728 155.004C185.138 154.76 184.671 154.3 184.428 153.725C184.184 153.149 184.184 152.503 184.428 151.927ZM177.718 133.28C177.072 133.28 176.452 133.031 175.995 132.587C175.538 132.143 175.281 131.541 175.281 130.914C175.281 130.286 175.538 129.684 175.995 129.24C176.452 128.797 177.072 128.547 177.718 128.547H191.008C191.04 129.336 191.056 130.125 191.056 130.914C191.056 131.702 191.04 132.491 191.008 133.28H177.718Z" fill="#ED3034"/>
</svg>
